<?xml version="1.0" encoding="utf-8"?>
<!-- Generator: Adobe Illustrator 25.1.0, SVG Export Plug-In . SVG Version: 6.00 Build 0)  -->
<svg version="1.1" id="Layer_1" xmlns="http://www.w3.org/2000/svg" xmlns:xlink="http://www.w3.org/1999/xlink" x="0px" y="0px"
	 viewBox="0 0 150 80" style="enable-background:new 0 0 150 80;" xml:space="preserve">
<style type="text/css">
	.st0{fill:#FFFFFF;}
</style>
<path class="st0" d="M16.2,64.6l-3.8-3.8l4.7-4.7h-5.6c-5.9,0-10.1-4-10.1-9.7v-7h5.8l0,6.2c0,3,2,5.1,4.8,5.1H17L12.3,46l3.8-3.8
	l7.2,7.2c2.2,2.2,2.2,5.8,0,8L16.2,64.6z M13.3,60.8l2.9,2.9l6.7-6.7c1.9-1.9,1.9-5.1,0-7.1l-6.7-6.7L13.3,46l5.4,5.4h-6.8
	c-3.2,0-5.5-2.4-5.5-5.8l0-5.5H2v6.2c0,5.3,3.9,9,9.4,9h7.3L13.3,60.8z"/>
<path class="st0" d="M23.1,49.6l-7-7L12.8,46l5,5h-5.9c-3,0-5.1-2.2-5.1-5.4l0-5.8H1.7v6.6c0,5.5,4,9.4,9.7,9.4h6.4l-5,5l3.3,3.3
	l7-7C25.2,55.1,25.2,51.7,23.1,49.6z"/>
<path class="st0" d="M1.3,2.3h7l8.4,20.1l8.5-20.1h6.9v28.8h-5.8V13.5L19,31.1h-4.6L7.1,13.5v17.6H1.3V2.3z"/>
<path class="st0" d="M35,20.7C35,14.5,39.6,10,46,10s11,4.5,11,10.7c0,6.2-4.6,10.7-11,10.7C39.6,31.4,35,26.9,35,20.7z M51.2,20.7
	c0-3.5-2.1-5.8-5.2-5.8s-5.2,2.3-5.2,5.8c0,3.4,2.1,5.8,5.2,5.8C49,26.5,51.2,24.1,51.2,20.7z"/>
<path class="st0" d="M59.3,10.3H65v2.9c1.2-2,3.5-3.2,6.3-3.2c4.7,0,7.7,3.4,7.7,8.2v12.9h-5.8V19.4c0-2.5-1.6-4.3-4-4.3
	c-2.5,0-4.3,1.9-4.3,4.6v11.4h-5.8V10.3z"/>
<path class="st0" d="M102.2,24.1c-0.8,4.5-4.8,7.4-9.9,7.4c-7,0-10.7-5.5-10.7-10.8c0-5.3,3.2-10.7,10.3-10.7
	c7.3,0,10.3,5.4,10.3,10.1c0,0.8,0,1.4-0.1,1.9H87.1c0.4,2.9,2.3,4.7,5.1,4.7c2.3,0,3.8-0.9,4.3-2.7L102.2,24.1L102.2,24.1z
	 M87.2,18.4h9.2c-0.2-2.3-1.8-4.2-4.5-4.2C89.3,14.2,87.7,15.5,87.2,18.4z"/>
<path class="st0" d="M115.7,31l-2.9,8.5h-5.5l3-8.6l-7.5-20.6h5.9l4.4,13.4l4.3-13.4h5.9L115.7,31z"/>
<path class="st0" d="M52.2,39.4v28.8H46V56.1H34.1v12.1H28V39.4h6.2v11.4H46V39.4H52.2z"/>
<path class="st0" d="M75.7,61.2c-0.8,4.5-4.8,7.4-9.9,7.4c-7,0-10.7-5.5-10.7-10.8c0-5.3,3.2-10.7,10.3-10.7
	c7.3,0,10.3,5.4,10.3,10.1c0,0.8,0,1.4-0.1,1.9H60.6c0.4,2.9,2.3,4.7,5.1,4.7c2.3,0,3.8-0.9,4.3-2.7L75.7,61.2L75.7,61.2z
	 M60.7,55.5h9.2c-0.2-2.3-1.8-4.2-4.5-4.2C62.8,51.3,61.2,52.6,60.7,55.5z"/>
<path class="st0" d="M84.6,38.4h-5.7v29.8h5.7V38.4z"/>
<path class="st0" d="M88.3,47.5H94v2.3c1.2-1.6,3.3-2.6,6-2.6c5.8,0,9.5,4.2,9.5,10.7c0,6.5-4,10.7-10,10.7c-2.3,0-4.4-0.8-5.5-2.2
	v10.3h-5.7L88.3,47.5L88.3,47.5z M103.9,57.8c0-3.5-2.1-5.8-5.1-5.8c-3.1,0-5.1,2.3-5.1,5.8c0,3.5,2,5.8,5.1,5.8
	C101.8,63.6,103.9,61.3,103.9,57.8z"/>
<path class="st0" d="M132.1,61.2c-0.8,4.5-4.8,7.4-9.9,7.4c-7,0-10.7-5.5-10.7-10.8c0-5.3,3.2-10.7,10.3-10.7
	c7.3,0,10.3,5.4,10.3,10.1c0,0.8,0,1.4-0.1,1.9h-14.9c0.4,2.9,2.3,4.7,5.1,4.7c2.3,0,3.8-0.9,4.3-2.7L132.1,61.2L132.1,61.2z
	 M117.2,55.5h9.2c-0.2-2.3-1.8-4.2-4.5-4.2C119.2,51.3,117.6,52.6,117.2,55.5z"/>
<path class="st0" d="M145.1,52.2c-2.8,0-4.1,2.3-4.1,5.9v10.1h-5.8V47.5h5.8v3.5c1.1-2.6,2.7-3.5,5.2-3.5h2.3v4.8H145.1z"/>
</svg>
